<?xml version="1.0" encoding="iso-8859-1"?>
<!-- Generator: Adobe Illustrator 16.0.4, SVG Export Plug-In . SVG Version: 6.00 Build 0)  -->
<!DOCTYPE svg PUBLIC "-//W3C//DTD SVG 1.1//EN" "http://www.w3.org/Graphics/SVG/1.1/DTD/svg11.dtd">
<svg version="1.1" id="Layer_1" xmlns="http://www.w3.org/2000/svg" xmlns:xlink="http://www.w3.org/1999/xlink" x="0px" y="0px"
	 width="736px" height="766px" viewBox="0 0 736 766" style="enable-background:new 0 0 736 766;" xml:space="preserve">
<path style="fill:#D3A48B;" d="M408.324,639.693C425.593,632.76,532.422,558.737,539,539c6.579-19.737,44-203.474,44-214
	s2.956-78.728-19.412-130.043S392.535,125.22,392.535,125.22h-19.071c0,0-148.685,18.421-171.053,69.737s-25,117.105-25,127.632
	S206,516.095,224,542c16.415,23.624,115.254,95.062,133.675,97.693C357.675,639.693,390.787,646.735,408.324,639.693z"/>
<path style="fill:#121212;stroke:#000000;stroke-miterlimit:10;" d="M289.79,497.579c0,0,92.105-30.263,185.526,0
	c-21.052,52.631-84.21,57.895-84.21,57.895S320.053,564.685,289.79,497.579z"/>
<line style="fill:none;stroke:#000000;stroke-miterlimit:10;" x1="383" y1="484.129" x2="383" y2="484.141"/>
<line style="fill:none;stroke:#000000;stroke-miterlimit:10;" x1="383" y1="507.762" x2="383" y2="508.762"/>
<path style="fill:#715348;" d="M189.523,396.118l20.109-104.486c0,0,13.158-1.316,23.684-5.263s11.842-68.421,11.842-68.421
	s126.466-17.105,203.365,5.263S585.85,284.59,585.85,284.59s1.222-50.309-27.912-98.926C546.29,166.228,555,159,475.315,116
	C450.988,102.873,423.899,88.935,383,91c-43.917-1.397-104,5.22-137.441,34.22c0,0-8.559-19.22-37.693,5.109
	c-10.981,9.169-25.278,36.058-30.454,47.671C145.158,250.368,189.523,396.118,189.523,396.118z"/>
<path style="fill:#FFFFFF;stroke:#080605;stroke-width:2;stroke-miterlimit:10;" d="M359.872,339.927
	c0,35.393-22.576,64.085-50.425,64.085c-27.849,0-50.424-28.692-50.424-64.085c0-35.394,22.576-50.927,50.425-50.927
	C337.296,289,359.872,304.534,359.872,339.927z"/>
<path style="fill:#FFFFFF;stroke:#080605;stroke-width:2;stroke-miterlimit:10;" d="M498.947,339.928
	c0,35.393-22.576,64.084-50.426,64.084c-27.849,0-50.425-28.691-50.425-64.084c0-35.394,22.576-50.928,50.426-50.928
	C476.371,289,498.947,304.534,498.947,339.928z"/>
<g>
	<path style="fill:#FFFFFF;stroke:#000000;stroke-miterlimit:10;" d="M303.375,520.016l-13.585-22.437c0,0,88.052-29.578,185.526,0
		l-13.448,22.437C377.252,492.443,303.375,520.016,303.375,520.016h0.006"/>
	<line style="fill:none;stroke:#000000;stroke-miterlimit:10;" x1="383" y1="507.762" x2="383" y2="484.129"/>
	<line style="fill:none;stroke:#000000;stroke-miterlimit:10;" x1="359.872" y1="508.762" x2="360.945" y2="485.021"/>
	<line style="fill:none;stroke:#000000;stroke-miterlimit:10;" x1="406.189" y1="508.762" x2="406.189" y2="485.021"/>
	<line style="fill:none;stroke:#000000;stroke-miterlimit:10;" x1="335.812" y1="511.895" x2="335.812" y2="487.732"/>
	<line style="fill:none;stroke:#000000;stroke-miterlimit:10;" x1="429.615" y1="511.895" x2="429.615" y2="487.732"/>
	<line style="fill:none;stroke:#000000;stroke-miterlimit:10;" x1="316.411" y1="516.095" x2="316.411" y2="490.81"/>
	<line style="fill:none;stroke:#000000;stroke-miterlimit:10;" x1="448.522" y1="516.095" x2="448.522" y2="490.81"/>
</g>
<ellipse style="fill:#5455A5;stroke:#000000;stroke-miterlimit:10;" cx="309.447" cy="357.048" rx="26.248" ry="26.974"/>
<path style="fill:#FFFFFF;stroke:#000000;stroke-miterlimit:10;" d="M301,339c0,0-12.421,7.5-11.21,12.5S301,343,301,341"/>
<ellipse style="fill:#5455A5;stroke:#000000;stroke-miterlimit:10;" cx="448.521" cy="357.048" rx="26.248" ry="26.974"/>
<path style="fill:#FFFFFF;stroke:#000000;stroke-miterlimit:10;" d="M440.074,339c0,0-12.42,7.5-11.21,12.5s11.21-8.5,11.21-10.5"/>
<path style="fill:none;stroke:#080605;stroke-miterlimit:10;" d="M376.471,384.021c0,0,8.722,40.979,21.625,46.979
	s-10.812,11-10.812,11"/>
<path style="fill:none;stroke:#080605;stroke-width:5;stroke-miterlimit:10;" d="M245.63,310.008c0,0,48.188-20.902,114.732,0
	c9.179,25.725,0,81.998,0,81.998s-102.111,9.647-108.996,0C244.483,382.359,245.63,310.008,245.63,310.008z"/>
<path style="fill:none;stroke:#080605;stroke-width:5;stroke-miterlimit:10;" d="M394.168,309.303c0,0,48.188-20.901,114.732,0
	c9.179,25.726,0,81.998,0,81.998s-102.111,9.647-108.996,0C393.021,381.655,394.168,309.303,394.168,309.303z"/>
<path style="fill:none;stroke:#080605;stroke-width:3;stroke-miterlimit:10;" d="M364.441,357.048
	c11.559-3.048,22.783-4.238,29.655,0"/>
</svg>
